<?xml version="1.0" encoding="utf-8"?>
<!-- Generator: Adobe Illustrator 22.1.0, SVG Export Plug-In . SVG Version: 6.00 Build 0)  -->
<svg version="1.0" xmlns="http://www.w3.org/2000/svg" xmlns:xlink="http://www.w3.org/1999/xlink" x="0px" y="0px"
	 viewBox="0 0 792 288" style="enable-background:new 0 0 792 288;" xml:space="preserve">
<metadata><?xpacket begin="﻿" id="W5M0MpCehiHzreSzNTczkc9d"?>
<x:xmpmeta xmlns:x="adobe:ns:meta/" x:xmptk="Adobe XMP Core 5.6-c143 79.161356, 2017/09/07-01:11:22        ">
   <rdf:RDF xmlns:rdf="http://www.w3.org/1999/02/22-rdf-syntax-ns#">
      <rdf:Description rdf:about=""/>
   </rdf:RDF>
</x:xmpmeta>
                                                                                                    
                                                                                                    
                                                                                                    
                                                                                                    
                                                                                                    
                                                                                                    
                                                                                                    
                                                                                                    
                                                                                                    
                                                                                                    
                                                                                                    
                                                                                                    
                                                                                                    
                                                                                                    
                                                                                                    
                                                                                                    
                                                                                                    
                                                                                                    
                                                                                                    
                                                                                                    
                           
<?xpacket end="w"?></metadata>
<g id="KS__x26__rule">
	<line style="fill:none;stroke:#FFFFFF;stroke-width:0.9998;stroke-miterlimit:10;" x1="211.1" y1="120.7" x2="211.1" y2="176.5"/>
	<g>
		<path style="fill:#FFFFFF;" d="M122.6,141.3l-5.1-0.8c-3.7-0.7-7.5-2.2-7.5-3.5v-6.4c0-2.5,21.4-2.3,36.1-2.3l6.3-7.6
			c-1.9,0-3.8,0-5.8,0h-44.7l2,3.5c-1.9,1-2.8,2.2-2.8,3.6v12.6c0,2.8,4.6,5.4,14.7,7.5l6.9,1.1V141.3z"/>
		<path style="fill:#FFFFFF;" d="M170.5,128.8c5.3,0.3,9.3,0.9,9.3,1.9v5.9h8.9v-8.8c0-2.5-4.6-4.4-12.8-5.5L170.5,128.8z"/>
		<path style="fill:#FFFFFF;" d="M153.5,149.5l4.1,5l14.8,2.3c3.6,0.7,7.5,2.2,7.5,3.5v5.5c0,1.3-4.6,2-11,2.4l5.7,6.9
			c9.2-1.1,14.3-3,14.3-5.8v-11.2c0-2.3-0.3-3-0.5-3.4c-1.3-2.3-4.3-3.2-17.5-6l-14.9-2.3L153.5,149.5z"/>
		<path style="fill:#FFFFFF;" d="M110,166.5v-5.2h-9v8.1c0,4.8,19.4,7.1,45.6,7.1c1.4,0,2.8,0,4.2,0l-6.3-7.7
			C136.1,168.8,110,168.8,110,166.5"/>
		<path style="fill:#FFFFFF;" d="M184.7,103.8h-19l2.7,5.1l-30.8,37.5v-13.3c-3.3,0-6.7,0-10,0.1v30.7c3.3,0.1,6.7,0.1,10,0.1v-11.4
			l30.8,37.6l-2.6,4.9h18.8l-37.3-45.6L184.7,103.8z"/>
		<polygon style="fill:#FFFFFF;" points="127.5,115.8 137.5,115.8 137.5,103.8 124.1,103.8 127.5,110.2 		"/>
		<path style="fill:#FFFFFF;" d="M127.5,188.8l-3.3,6.3h13.4v-13.8c-3.3-0.1-6.7-0.2-10-0.4V188.8z"/>
		<path style="fill:none;" d="M193.6,169.4v-11.2c0-2.1-0.3-4.5-1.1-5.8c-2.8-4.6-8.9-5.7-13.7-6.8c-2-0.5-9.9-1.8-19.5-3.4l7.3-8.8
			c2.9,0.2,5.7,0.4,8.3,0.8v7.2h18.6v-13.7c0.1-6.1-6.9-8.3-11.6-9.4c-0.7-0.2-1.5-0.3-2.4-0.5L195,99h-37.3c1,1.9,4.9,9.3,4.9,9.3
			l-6.3,7.7c-4.6-0.1-9-0.2-12.5-0.2h-1.3V99h-26.3l6.5,12.4v4.4H93.5l4.1,7.3c-0.9,1.3-1.5,3-1.5,4.6v12.6
			c-0.1,8.5,12.3,10.9,18.6,12.2c2.6,0.4,5.3,0.9,7.9,1.3v9.8c-2.6-0.1-5.2-0.4-7.7-0.7v-6.6H96.1v13c-0.1,8.7,13.8,9.8,20,10.5
			c2.2,0.3,4.3,0.5,6.5,0.6v7l-6.5,12.4h26.3v-18.7c1.1,0,2.2,0,3.4,0c3,0,6,0,9-0.1l7.7,9.5l-4.9,9.2h37.2l-16.6-20.3
			C184.9,178.7,193.6,176.5,193.6,169.4 M170.8,148.9c13.3,2.7,16.2,3.7,17.5,6c0.2,0.3,0.5,1.1,0.5,3.4v11.2
			c0,2.7-5.1,4.6-14.3,5.8l-5.7-6.9c6.4-0.4,11-1.2,11-2.4v-5.5c0-1.4-4-2.8-7.5-3.5l-14.8-2.3l-4.1-5l2.4-2.9L170.8,148.9z
			 M165.2,163.9l-3.2-3.9c3.1,0.5,6.3,1,9.4,1.5c1.2,0.2,2.5,0.5,3.5,0.8v0.7C171.7,163.4,168.4,163.7,165.2,163.9 M188.7,127.7v8.8
			h-8.9v-5.9c0-1-4-1.5-9.3-1.9l5.4-6.6C184.1,123.3,188.7,125.2,188.7,127.7 M137.5,103.8v12h-10v-5.6l-3.3-6.3H137.5z
			 M115.7,147.8c-10.1-2.1-14.7-4.7-14.7-7.5v-12.6c0-1.4,0.9-2.6,2.8-3.6l-2-3.5h44.7c2,0,3.9,0,5.8,0l-6.3,7.6
			c-14.7,0-36.1-0.2-36.1,2.3v6.4c0,1.4,3.8,2.8,7.5,3.5l5.1,0.8v7.6L115.7,147.8z M122.6,133.4v3.1c-0.8-0.1-1.5-0.2-2.1-0.3
			c-0.7-0.1-4.7-1-5.7-1.3V134C117.4,133.7,120,133.5,122.6,133.4 M137.5,195.1h-13.4l3.3-6.3v-7.9c3.3,0.2,6.7,0.3,10,0.4V195.1z
			 M146.6,176.5c-26.2,0-45.6-2.3-45.6-7.1v-8.1h9v5.2c0,2.3,26.1,2.3,34.5,2.3l6.3,7.7C149.4,176.5,148,176.5,146.6,176.5
			 M184.5,195.1h-18.8l2.6-4.9l-30.8-37.6V164c-3.3,0-6.7,0-10-0.1v-30.7c3.3-0.1,6.7-0.1,10-0.1v13.3l30.8-37.5l-2.7-5.1h19
			l-37.5,45.6L184.5,195.1z"/>
		<path style="fill:#FFFFFF;" d="M120.5,136.1c0.6,0.1,1.3,0.2,2.1,0.3v-3.1c-2.6,0.1-5.2,0.4-7.7,0.7v0.8
			C115.8,135.1,119.8,136,120.5,136.1"/>
		<path style="fill:#FFFFFF;" d="M171.5,161.4c-3.1-0.5-6.3-1-9.4-1.5l3.2,3.9c3.2-0.1,6.5-0.4,9.7-0.9v-0.7
			C174,161.9,172.7,161.7,171.5,161.4"/>
		<path style="fill:#FFFFFF;" d="M192.6,182.5c0-1.1-0.7-2.2-1.8-2.9c3.7-2.1,6.4-5.7,6.4-10.1v-11.2c0-6.2-2.7-10.8-8.4-13.3h8.3
			v-13.8c0-2,0.2-4.2-0.4-6.2c-1.4-5-6.3-7.7-11-9.1l16.4-20.2h-50.2c2.1,4.1,4.3,8.3,6.4,12.4l-3.8,4.6c-3.1-0.1-6.1-0.1-8.7-0.1
			V95.5h-35.6l8.8,16.8v0.1H87.5l6.1,10.8c-0.6,1.4-1,3-1,4.6v12.6c-0.1,6.3,5.1,10.4,10.4,12.6H92.7v16.5
			c-0.3,12.5,17.7,13.5,26.5,14.3v3l-8.8,16.8h35.6v-18.6c2.4,0,4.8,0,7.2,0l5.2,6.4l-6.5,12.3h50.3l-13.9-17
			C190.8,185.9,192.6,184.3,192.6,182.5 M194.8,200h-37.2l4.9-9.2l-7.7-9.5c-3,0.1-6,0.1-9,0.1c-1.1,0-2.2,0-3.4,0V200h-26.3
			l6.5-12.4v-7c-2.2-0.2-4.3-0.4-6.5-0.6c-6.1-0.7-20-1.8-20-10.5v-13h18.7v6.6c2.6,0.3,5.1,0.5,7.7,0.7v-9.8
			c-2.6-0.4-5.3-0.9-7.9-1.3c-6.3-1.3-18.7-3.8-18.6-12.2v-12.6c0-1.6,0.6-3.3,1.5-4.6l-4.1-7.3h29.1v-4.4L116.1,99h26.3v16.8h1.3
			c3.5,0,7.9,0.1,12.5,0.2l6.3-7.7c0,0-3.8-7.4-4.9-9.3H195l-15.5,18.8c0.9,0.2,1.7,0.3,2.4,0.5c4.8,1.1,11.7,3.4,11.6,9.4v13.7
			h-18.6v-7.2c-2.5-0.4-5.3-0.6-8.3-0.8l-7.3,8.8c9.5,1.5,17.5,2.9,19.5,3.4c4.8,1.1,10.9,2.2,13.7,6.8c0.8,1.3,1.1,3.7,1.1,5.8
			v11.2c0,7.1-8.8,9.3-15.5,10.2L194.8,200z M189.1,182.6c0,1.1-0.8,1.9-1.9,1.9c-1.1,0-1.9-0.8-1.9-1.9c0-1,0.9-1.9,1.9-1.9
			C188.3,180.7,189.1,181.5,189.1,182.6 M185.8,182.6c0,0.8,0.6,1.5,1.5,1.5c0.8,0,1.4-0.7,1.4-1.5c0-0.8-0.6-1.5-1.4-1.5
			C186.4,181.1,185.8,181.7,185.8,182.6 M186.9,183.5h-0.4v-1.9c0.2,0,0.4-0.1,0.7-0.1c0.4,0,0.5,0.1,0.6,0.1
			c0.1,0.1,0.2,0.2,0.2,0.4c0,0.2-0.2,0.4-0.4,0.4v0c0.2,0.1,0.3,0.2,0.3,0.5c0.1,0.3,0.1,0.4,0.1,0.5h-0.5
			c-0.1-0.1-0.1-0.2-0.1-0.5c0-0.2-0.1-0.3-0.4-0.3h-0.2V183.5z M186.9,182.5h0.2c0.2,0,0.4-0.1,0.4-0.3c0-0.2-0.1-0.3-0.4-0.3
			c-0.1,0-0.2,0-0.2,0V182.5z"/>
	</g>
</g>
<g id="text">
	<g>
		<g>
			<g>
				<g>
					<path style="fill:#FFFFFF;" d="M228.5,134.6l-3.1,3.2v5.8h-5.3v-23.1h5.3v10.8l10.2-10.8h5.9l-9.6,10.3l10.1,12.8h-6.2
						L228.5,134.6z"/>
					<path style="fill:#FFFFFF;" d="M262.4,139.4v4.3h-17.9v-23.1H262v4.3h-12.1v5h10.7v4.2h-10.7v5.3H262.4z"/>
					<path style="fill:#FFFFFF;" d="M287.9,120.6v23.1h-4.4l-11.5-14v14h-5.3v-23.1h4.4l11.5,14v-14H287.9z"/>
					<path style="fill:#FFFFFF;" d="M315.3,120.6v23.1H311l-11.5-14v14h-5.3v-23.1h4.4l11.5,14v-14H315.3z"/>
					<path style="fill:#FFFFFF;" d="M339.5,139.4v4.3h-17.9v-23.1h17.5v4.3H327v5h10.7v4.2H327v5.3H339.5z"/>
					<path style="fill:#FFFFFF;" d="M342,141.4l1.8-4c1.9,1.4,4.9,2.4,7.6,2.4c3.2,0,4.5-1.1,4.5-2.5c0-4.3-13.4-1.4-13.4-9.9
						c0-3.9,3.2-7.2,9.7-7.2c2.9,0,5.9,0.7,8,2l-1.7,4.1c-2.1-1.2-4.4-1.8-6.4-1.8c-3.2,0-4.4,1.2-4.4,2.6c0,4.3,13.4,1.3,13.4,9.8
						c0,3.9-3.2,7.2-9.8,7.2C347.7,144.1,344,143,342,141.4z"/>
					<path style="fill:#FFFFFF;" d="M379.9,138.8h-10.7l-2,5h-5.5l10.3-23.1h5.3l10.3,23.1h-5.6L379.9,138.8z M378.2,134.7l-3.7-8.8
						l-3.7,8.8H378.2z"/>
					<path style="fill:#FFFFFF;" d="M422.2,120.6l-7.6,23.1h-5.7l-5.1-15.6l-5.2,15.6h-5.7l-7.6-23.1h5.5l5.2,16.2l5.4-16.2h5
						l5.3,16.4l5.4-16.4H422.2z"/>
					<path style="fill:#FFFFFF;" d="M433.2,141.4l1.8-4c1.9,1.4,4.9,2.4,7.6,2.4c3.2,0,4.5-1.1,4.5-2.5c0-4.3-13.4-1.4-13.4-9.9
						c0-3.9,3.2-7.2,9.7-7.2c2.9,0,5.9,0.7,8,2l-1.7,4.1c-2.1-1.2-4.4-1.8-6.4-1.8c-3.2,0-4.4,1.2-4.4,2.6c0,4.3,13.4,1.3,13.4,9.8
						c0,3.9-3.2,7.2-9.8,7.2C438.9,144.1,435.2,143,433.2,141.4z"/>
					<path style="fill:#FFFFFF;" d="M460.4,125H453v-4.4h20.1v4.4h-7.4v18.7h-5.3V125z"/>
					<path style="fill:#FFFFFF;" d="M488.2,138.8h-10.7l-2,5H470l10.3-23.1h5.3l10.3,23.1h-5.6L488.2,138.8z M486.5,134.7l-3.7-8.8
						l-3.7,8.8H486.5z"/>
					<path style="fill:#FFFFFF;" d="M500.2,125h-7.4v-4.4h20.1v4.4h-7.4v18.7h-5.3V125z"/>
					<path style="fill:#FFFFFF;" d="M533.8,139.4v4.3h-17.9v-23.1h17.5v4.3h-12.1v5H532v4.2h-10.7v5.3H533.8z"/>
				</g>
				<g>
					<path style="fill:#FFFFFF;" d="M220.2,166.5v-13.2h2.4v13.1c0,5.5,2.6,8,7.1,8c4.5,0,7.1-2.5,7.1-8v-13.1h2.4v13.2
						c0,6.6-3.6,10.1-9.5,10.1S220.2,173.2,220.2,166.5z"/>
					<path style="fill:#FFFFFF;" d="M278.6,153.3v23.1h-2l-14.9-18.7v18.7h-2.4v-23.1h2l14.9,18.7v-18.7H278.6z"/>
					<path style="fill:#FFFFFF;" d="M298.9,153.3h2.4v23.1h-2.4V153.3z"/>
					<path style="fill:#FFFFFF;" d="M340.9,153.3l-10.2,23.1h-2.4l-10.2-23.1h2.6l8.8,20.1l8.9-20.1H340.9z"/>
					<path style="fill:#FFFFFF;" d="M373.9,174.3v2.1h-16.3v-23.1h15.8v2.1H360v8.2h11.9v2.1H360v8.6H373.9z"/>
					<path style="fill:#FFFFFF;" d="M408.2,176.4l-5.3-7.4c-0.6,0.1-1.2,0.1-1.8,0.1h-6.2v7.3h-2.4v-23.1h8.6c5.9,0,9.4,3,9.4,7.9
						c0,3.6-1.9,6.2-5.3,7.3l5.6,7.9H408.2z M408.1,161.2c0-3.7-2.4-5.8-7.1-5.8h-6.1V167h6.1C405.6,167,408.1,164.8,408.1,161.2z"
						/>
					<path style="fill:#FFFFFF;" d="M426.9,173.6l1-1.9c1.6,1.6,4.6,2.8,7.6,2.8c4.3,0,6.2-1.8,6.2-4.1c0-6.3-14.2-2.4-14.2-11
						c0-3.4,2.6-6.3,8.5-6.3c2.6,0,5.3,0.8,7.2,2l-0.8,1.9c-2-1.3-4.3-1.9-6.3-1.9c-4.2,0-6.1,1.9-6.1,4.2c0,6.3,14.2,2.5,14.2,10.9
						c0,3.4-2.7,6.3-8.6,6.3C432,176.6,428.6,175.4,426.9,173.6z"/>
					<path style="fill:#FFFFFF;" d="M462.2,153.3h2.4v23.1h-2.4V153.3z"/>
					<path style="fill:#FFFFFF;" d="M489.5,155.4h-8.1v-2.1H500v2.1h-8.1v21h-2.4V155.4z"/>
					<path style="fill:#FFFFFF;" d="M524.6,168.4v8h-2.4v-8l-9.2-15.1h2.6l7.9,13l7.9-13h2.4L524.6,168.4z"/>
				</g>
			</g>
		</g>
	</g>
</g>
</svg>
