<?xml version="1.0" encoding="utf-8"?>
<!-- Generator: Adobe Illustrator 22.1.0, SVG Export Plug-In . SVG Version: 6.00 Build 0)  -->
<svg version="1.0" xmlns="http://www.w3.org/2000/svg" xmlns:xlink="http://www.w3.org/1999/xlink" x="0px" y="0px"
	 viewBox="0 0 576 288" style="enable-background:new 0 0 576 288;" xml:space="preserve">
<metadata><?xpacket begin="﻿" id="W5M0MpCehiHzreSzNTczkc9d"?>
<x:xmpmeta xmlns:x="adobe:ns:meta/" x:xmptk="Adobe XMP Core 5.6-c143 79.161356, 2017/09/07-01:11:22        ">
   <rdf:RDF xmlns:rdf="http://www.w3.org/1999/02/22-rdf-syntax-ns#">
      <rdf:Description rdf:about=""/>
   </rdf:RDF>
</x:xmpmeta>
                                                                                                    
                                                                                                    
                                                                                                    
                                                                                                    
                                                                                                    
                                                                                                    
                                                                                                    
                                                                                                    
                                                                                                    
                                                                                                    
                                                                                                    
                                                                                                    
                                                                                                    
                                                                                                    
                                                                                                    
                                                                                                    
                                                                                                    
                                                                                                    
                                                                                                    
                                                                                                    
                           
<?xpacket end="w"?></metadata>
<g id="KS__x26__rule">
	<line style="fill:none;stroke:#FFFFFF;stroke-miterlimit:10;" x1="212.6" y1="184" x2="363.1" y2="184"/>
	<g>
		<path style="fill:#FFFFFF;" d="M265.7,113.8l-5.1-0.8c-3.7-0.7-7.5-2.2-7.5-3.5v-6.4c0-2.5,21.4-2.3,36.1-2.3l6.3-7.6
			c-1.9,0-3.8,0-5.8,0h-44.7l2,3.5c-1.9,1-2.8,2.2-2.8,3.6v12.6c0,2.8,4.6,5.4,14.7,7.5l6.9,1.1V113.8z"/>
		<path style="fill:#FFFFFF;" d="M313.6,101.2c5.3,0.3,9.3,0.9,9.3,1.9v5.9h8.9v-8.8c0-2.5-4.6-4.4-12.8-5.5L313.6,101.2z"/>
		<path style="fill:#FFFFFF;" d="M296.6,121.9l4.1,5l14.8,2.3c3.6,0.7,7.5,2.2,7.5,3.5v5.5c0,1.3-4.6,2-11,2.4l5.7,6.9
			c9.2-1.1,14.3-3,14.3-5.8v-11.2c0-2.3-0.3-3-0.5-3.4c-1.3-2.3-4.3-3.2-17.5-6L299,119L296.6,121.9z"/>
		<path style="fill:#FFFFFF;" d="M253.1,139v-5.2h-9v8.1c0,4.8,19.4,7.1,45.6,7.1c1.4,0,2.8,0,4.2,0l-6.3-7.7
			C279.3,141.3,253.1,141.3,253.1,139"/>
		<path style="fill:#FFFFFF;" d="M327.8,76.3h-19l2.7,5.1l-30.8,37.5v-13.3c-3.3,0-6.7,0-10,0.1v30.7c3.3,0.1,6.7,0.1,10,0.1V125
			l30.8,37.6l-2.6,4.9h18.8l-37.3-45.6L327.8,76.3z"/>
		<polygon style="fill:#FFFFFF;" points="270.6,88.2 280.6,88.2 280.6,76.3 267.3,76.3 270.6,82.6 		"/>
		<path style="fill:#FFFFFF;" d="M270.6,161.2l-3.3,6.3h13.4v-13.8c-3.3-0.1-6.7-0.2-10-0.4V161.2z"/>
		<path style="fill:none;" d="M336.8,141.9v-11.2c0-2.1-0.3-4.5-1.1-5.8c-2.8-4.6-8.9-5.7-13.7-6.8c-2-0.5-9.9-1.8-19.5-3.4l7.3-8.8
			c2.9,0.2,5.7,0.4,8.3,0.8v7.2h18.6v-13.7c0.1-6.1-6.9-8.3-11.6-9.4c-0.7-0.2-1.5-0.3-2.4-0.5l15.5-18.8h-37.3
			c1,1.9,4.9,9.3,4.9,9.3l-6.3,7.7c-4.6-0.1-9-0.2-12.5-0.2h-1.3V71.4h-26.3l6.5,12.4v4.4h-29.1l4.1,7.3c-0.9,1.3-1.5,3-1.5,4.6
			v12.6c-0.1,8.5,12.3,10.9,18.6,12.2c2.6,0.4,5.3,0.9,7.9,1.3v9.8c-2.6-0.1-5.2-0.4-7.7-0.7v-6.6h-18.7v13
			c-0.1,8.7,13.8,9.8,20,10.5c2.2,0.3,4.3,0.5,6.5,0.6v7l-6.5,12.4h26.3v-18.7c1.1,0,2.2,0,3.4,0c3,0,6,0,9-0.1l7.7,9.5l-4.9,9.2
			h37.2l-16.6-20.3C328,151.2,336.8,149,336.8,141.9 M313.9,121.3c13.3,2.7,16.2,3.7,17.5,6c0.2,0.3,0.5,1.1,0.5,3.4v11.2
			c0,2.7-5.1,4.6-14.3,5.8l-5.7-6.9c6.4-0.4,11-1.2,11-2.4v-5.5c0-1.4-4-2.8-7.5-3.5l-14.8-2.3l-4.1-5l2.4-2.9L313.9,121.3z
			 M308.3,136.3l-3.2-3.9c3.1,0.5,6.3,1,9.4,1.5c1.2,0.2,2.5,0.5,3.5,0.8v0.7C314.8,135.9,311.6,136.2,308.3,136.3 M331.8,100.2v8.8
			h-8.9v-5.9c0-1-4-1.5-9.3-1.9l5.4-6.6C327.3,95.8,331.8,97.6,331.8,100.2 M280.6,76.3v12h-10v-5.6l-3.3-6.3H280.6z M258.8,120.3
			c-10.1-2.1-14.7-4.7-14.7-7.5v-12.6c0-1.4,0.9-2.6,2.8-3.6l-2-3.5h44.7c2,0,3.9,0,5.8,0l-6.3,7.6c-14.7,0-36.1-0.2-36.1,2.3v6.4
			c0,1.4,3.8,2.8,7.5,3.5l5.1,0.8v7.6L258.8,120.3z M265.7,105.8v3.1c-0.8-0.1-1.5-0.2-2.1-0.3c-0.7-0.1-4.7-1-5.7-1.3v-0.8
			C260.5,106.2,263.1,106,265.7,105.8 M280.6,167.6h-13.4l3.3-6.3v-7.9c3.3,0.2,6.7,0.3,10,0.4V167.6z M289.7,148.9
			c-26.2,0-45.6-2.3-45.6-7.1v-8.1h9v5.2c0,2.3,26.1,2.3,34.5,2.3l6.3,7.7C292.5,148.9,291.1,148.9,289.7,148.9 M327.6,167.6h-18.8
			l2.6-4.9L280.6,125v11.4c-3.3,0-6.7,0-10-0.1v-30.7c3.3-0.1,6.7-0.1,10-0.1v13.3l30.8-37.5l-2.7-5.1h19l-37.5,45.6L327.6,167.6z"
			/>
		<path style="fill:#FFFFFF;" d="M263.6,108.6c0.6,0.1,1.3,0.2,2.1,0.3v-3.1c-2.6,0.1-5.2,0.4-7.7,0.7v0.8
			C258.9,107.6,262.9,108.4,263.6,108.6"/>
		<path style="fill:#FFFFFF;" d="M314.6,133.9c-3.1-0.5-6.3-1-9.4-1.5l3.2,3.9c3.2-0.1,6.5-0.4,9.7-0.9v-0.7
			C317.1,134.4,315.8,134.1,314.6,133.9"/>
		<path style="fill:#FFFFFF;" d="M335.7,155c0-1.1-0.7-2.2-1.8-2.9c3.7-2.1,6.4-5.7,6.4-10.1v-11.2c0-6.2-2.7-10.8-8.4-13.3h8.3
			v-13.8c0-2,0.2-4.2-0.4-6.2c-1.4-5-6.3-7.7-11-9.1l16.4-20.2H295c2.1,4.1,4.3,8.3,6.4,12.4l-3.8,4.6c-3.1-0.1-6.1-0.1-8.7-0.1
			V67.9h-35.6l8.8,16.8v0.1h-31.6l6.1,10.8c-0.6,1.4-1,3-1,4.6v12.6c-0.1,6.3,5.1,10.4,10.4,12.6h-10.4v16.5
			c-0.3,12.5,17.7,13.5,26.5,14.3v3l-8.8,16.8H289v-18.6c2.4,0,4.8,0,7.2,0l5.2,6.4l-6.5,12.3h50.3l-13.9-17
			C333.9,158.3,335.7,156.8,335.7,155 M337.9,172.4h-37.2l4.9-9.2l-7.7-9.5c-3,0.1-6,0.1-9,0.1c-1.1,0-2.2,0-3.4,0v18.7h-26.3
			l6.5-12.4v-7c-2.2-0.2-4.3-0.4-6.5-0.6c-6.1-0.7-20-1.8-20-10.5v-13H258v6.6c2.6,0.3,5.1,0.5,7.7,0.7v-9.8
			c-2.6-0.4-5.3-0.9-7.9-1.3c-6.3-1.3-18.7-3.8-18.6-12.2v-12.6c0-1.6,0.6-3.3,1.5-4.6l-4.1-7.3h29.1v-4.4l-6.5-12.4h26.3v16.8h1.3
			c3.5,0,7.9,0.1,12.5,0.2l6.3-7.7c0,0-3.8-7.4-4.9-9.3h37.3l-15.5,18.8c0.9,0.2,1.7,0.3,2.4,0.5c4.8,1.1,11.7,3.4,11.6,9.4v13.7
			H318v-7.2c-2.5-0.4-5.3-0.6-8.3-0.8l-7.3,8.8c9.5,1.5,17.5,2.9,19.5,3.4c4.8,1.1,10.9,2.2,13.7,6.8c0.8,1.3,1.1,3.7,1.1,5.8v11.2
			c0,7.1-8.8,9.3-15.5,10.2L337.9,172.4z M332.2,155c0,1.1-0.8,1.9-1.9,1.9c-1.1,0-1.9-0.8-1.9-1.9c0-1,0.9-1.9,1.9-1.9
			C331.4,153.2,332.2,154,332.2,155 M328.9,155c0,0.8,0.6,1.5,1.5,1.5c0.8,0,1.4-0.7,1.4-1.5c0-0.8-0.6-1.5-1.4-1.5
			C329.5,153.5,328.9,154.2,328.9,155 M330,156h-0.4v-1.9c0.2,0,0.4-0.1,0.7-0.1c0.4,0,0.5,0.1,0.6,0.1c0.1,0.1,0.2,0.2,0.2,0.4
			c0,0.2-0.2,0.4-0.4,0.4v0c0.2,0.1,0.3,0.2,0.3,0.5c0.1,0.3,0.1,0.4,0.1,0.5h-0.5c-0.1-0.1-0.1-0.2-0.1-0.5c0-0.2-0.1-0.3-0.4-0.3
			H330V156z M330,154.9h0.2c0.2,0,0.4-0.1,0.4-0.3c0-0.2-0.1-0.3-0.4-0.3c-0.1,0-0.2,0-0.2,0V154.9z"/>
	</g>
</g>
<g id="text">
	<g>
		<g>
			<path style="fill:#FFFFFF;" d="M212.6,215.8v-5.6h1v5.6c0,2.3,1.1,3.4,3,3.4c1.9,0,3-1.1,3-3.4v-5.6h1v5.6c0,2.8-1.5,4.3-4,4.3
				S212.6,218.6,212.6,215.8z"/>
			<path style="fill:#FFFFFF;" d="M239.3,210.2v9.8h-0.9l-6.3-8v8h-1v-9.8h0.9l6.3,8v-8H239.3z"/>
			<path style="fill:#FFFFFF;" d="M249.8,210.2h1v9.8h-1V210.2z"/>
			<path style="fill:#FFFFFF;" d="M270.1,210.2l-4.3,9.8h-1l-4.3-9.8h1.1l3.8,8.5l3.8-8.5H270.1z"/>
			<path style="fill:#FFFFFF;" d="M285.9,219.1v0.9H279v-9.8h6.7v0.9H280v3.5h5.1v0.9H280v3.6H285.9z"/>
			<path style="fill:#FFFFFF;" d="M302.4,220l-2.2-3.2c-0.3,0-0.5,0-0.8,0h-2.6v3.1h-1v-9.8h3.7c2.5,0,4,1.3,4,3.4
				c0,1.5-0.8,2.6-2.2,3.1l2.4,3.4H302.4z M302.3,213.5c0-1.6-1-2.5-3-2.5h-2.6v4.9h2.6C301.3,216,302.3,215.1,302.3,213.5z"/>
			<path style="fill:#FFFFFF;" d="M312.5,218.8l0.4-0.8c0.7,0.7,1.9,1.2,3.2,1.2c1.8,0,2.6-0.8,2.6-1.7c0-2.7-6-1-6-4.7
				c0-1.4,1.1-2.7,3.6-2.7c1.1,0,2.3,0.3,3,0.9l-0.3,0.8c-0.8-0.5-1.8-0.8-2.7-0.8c-1.8,0-2.6,0.8-2.6,1.8c0,2.7,6,1.1,6,4.6
				c0,1.4-1.1,2.7-3.7,2.7C314.6,220.1,313.2,219.6,312.5,218.8z"/>
			<path style="fill:#FFFFFF;" d="M329.3,210.2h1v9.8h-1V210.2z"/>
			<path style="fill:#FFFFFF;" d="M342.7,211.1h-3.4v-0.9h7.9v0.9h-3.4v8.9h-1V211.1z"/>
			<path style="fill:#FFFFFF;" d="M359.5,216.6v3.4h-1v-3.4l-3.9-6.4h1.1l3.4,5.5l3.4-5.5h1L359.5,216.6z"/>
		</g>
		<g>
			<path style="fill:#FFFFFF;" d="M216.7,200.8l-1.5,1.6v2.8h-2.6V194h2.6v5.2l5-5.2h2.9l-4.6,5l4.9,6.2h-3L216.7,200.8z"/>
			<path style="fill:#FFFFFF;" d="M233.1,203.1v2.1h-8.7V194h8.5v2.1h-5.9v2.4h5.2v2h-5.2v2.6H233.1z"/>
			<path style="fill:#FFFFFF;" d="M245.5,194v11.2h-2.1l-5.6-6.8v6.8h-2.6V194h2.1l5.6,6.8V194H245.5z"/>
			<path style="fill:#FFFFFF;" d="M258.3,194v11.2h-2.1l-5.6-6.8v6.8h-2.6V194h2.1l5.6,6.8V194H258.3z"/>
			<path style="fill:#FFFFFF;" d="M269.6,203.1v2.1h-8.7V194h8.5v2.1h-5.9v2.4h5.2v2h-5.2v2.6H269.6z"/>
			<path style="fill:#FFFFFF;" d="M270.8,204l0.9-2c0.9,0.7,2.4,1.2,3.7,1.2c1.5,0,2.2-0.5,2.2-1.2c0-2.1-6.5-0.7-6.5-4.8
				c0-1.9,1.5-3.5,4.7-3.5c1.4,0,2.8,0.3,3.9,1l-0.8,2c-1-0.6-2.1-0.9-3.1-0.9c-1.5,0-2.1,0.6-2.1,1.3c0,2.1,6.5,0.6,6.5,4.7
				c0,1.9-1.6,3.5-4.7,3.5C273.5,205.3,271.8,204.8,270.8,204z"/>
			<path style="fill:#FFFFFF;" d="M289,202.8h-5.2l-1,2.4h-2.7l5-11.2h2.6l5,11.2H290L289,202.8z M288.2,200.8l-1.8-4.3l-1.8,4.3
				H288.2z"/>
			<path style="fill:#FFFFFF;" d="M309.4,194l-3.7,11.2h-2.8l-2.5-7.6l-2.5,7.6h-2.8l-3.7-11.2h2.7l2.5,7.9l2.6-7.9h2.4l2.6,7.9
				l2.6-7.9H309.4z"/>
			<path style="fill:#FFFFFF;" d="M314.7,204l0.9-2c0.9,0.7,2.4,1.2,3.7,1.2c1.5,0,2.2-0.5,2.2-1.2c0-2.1-6.5-0.7-6.5-4.8
				c0-1.9,1.5-3.5,4.7-3.5c1.4,0,2.8,0.3,3.9,1l-0.8,2c-1-0.6-2.1-0.9-3.1-0.9c-1.5,0-2.1,0.6-2.1,1.3c0,2.1,6.5,0.6,6.5,4.7
				c0,1.9-1.6,3.5-4.8,3.5C317.5,205.3,315.7,204.8,314.7,204z"/>
			<path style="fill:#FFFFFF;" d="M327.9,196.1h-3.6V194h9.8v2.1h-3.6v9.1h-2.6V196.1z"/>
			<path style="fill:#FFFFFF;" d="M341.4,202.8h-5.2l-1,2.4h-2.7l5-11.2h2.6l5,11.2h-2.7L341.4,202.8z M340.6,200.8l-1.8-4.3
				l-1.8,4.3H340.6z"/>
			<path style="fill:#FFFFFF;" d="M347.1,196.1h-3.6V194h9.8v2.1h-3.6v9.1h-2.6V196.1z"/>
			<path style="fill:#FFFFFF;" d="M363.4,203.1v2.1h-8.7V194h8.5v2.1h-5.9v2.4h5.2v2h-5.2v2.6H363.4z"/>
		</g>
	</g>
</g>
</svg>
