<?xml version="1.0" encoding="utf-8"?>
<!-- Generator: Adobe Illustrator 22.1.0, SVG Export Plug-In . SVG Version: 6.00 Build 0)  -->
<svg version="1.0" xmlns="http://www.w3.org/2000/svg" xmlns:xlink="http://www.w3.org/1999/xlink" x="0px" y="0px"
	 viewBox="0 0 576 216" style="enable-background:new 0 0 576 216;" xml:space="preserve">
<metadata><?xpacket begin="﻿" id="W5M0MpCehiHzreSzNTczkc9d"?>
<x:xmpmeta xmlns:x="adobe:ns:meta/" x:xmptk="Adobe XMP Core 5.6-c143 79.161356, 2017/09/07-01:11:22        ">
   <rdf:RDF xmlns:rdf="http://www.w3.org/1999/02/22-rdf-syntax-ns#">
      <rdf:Description rdf:about=""/>
   </rdf:RDF>
</x:xmpmeta>
                                                                                                    
                                                                                                    
                                                                                                    
                                                                                                    
                                                                                                    
                                                                                                    
                                                                                                    
                                                                                                    
                                                                                                    
                                                                                                    
                                                                                                    
                                                                                                    
                                                                                                    
                                                                                                    
                                                                                                    
                                                                                                    
                                                                                                    
                                                                                                    
                                                                                                    
                                                                                                    
                           
<?xpacket end="w"?></metadata>
<g id="KS__x26__rule">
	<line style="fill:none;stroke:#000000;stroke-width:1.0839;stroke-miterlimit:10;" x1="185.4" y1="74.3" x2="185.4" y2="139.9"/>
	<g>
		<path d="M168,128v-11.2c0-2.1-0.3-4.5-1.1-5.8c-2.8-4.6-8.9-5.7-13.7-6.8c-2-0.5-9.9-1.8-19.5-3.4L141,92c2.9,0.2,5.7,0.4,8.3,0.8
			v7.2h18.6V86.2c0.1-6.1-6.9-8.3-11.6-9.4c-0.7-0.2-1.5-0.3-2.4-0.5l15.5-18.8H132c1,1.9,4.9,9.3,4.9,9.3l-6.3,7.7
			c-4.6-0.1-9-0.2-12.5-0.2h-1.3V57.5H90.4l6.5,12.4v4.4H67.8l4.1,7.3c-0.9,1.3-1.5,3-1.5,4.6v12.6c-0.1,8.5,12.3,10.9,18.6,12.2
			c2.6,0.4,5.3,0.9,7.9,1.3v9.8c-2.6-0.1-5.2-0.4-7.7-0.7V115H70.5v13c-0.1,8.7,13.8,9.8,20,10.5c2.2,0.3,4.3,0.5,6.5,0.6v7
			l-6.5,12.4h26.3v-18.7c1.1,0,2.2,0,3.4,0c3,0,6,0,9-0.1l7.7,9.5l-4.9,9.2h37.2l-16.6-20.3C159.2,137.2,168,135.1,168,128
			 M139.5,122.4l-3.2-3.9c3.1,0.5,6.3,1,9.4,1.5c1.2,0.2,2.5,0.5,3.5,0.8v0.7C146,122,142.8,122.2,139.5,122.4 M96.9,91.9v3.1
			c-0.8-0.1-1.5-0.2-2.1-0.3c-0.7-0.1-4.7-1-5.7-1.3v-0.8C91.8,92.3,94.3,92,96.9,91.9 M96.9,107.4l-6.9-1.1
			c-10.1-2.1-14.7-4.7-14.7-7.5V86.3c0-1.4,0.9-2.6,2.8-3.6l-2-3.5h44.7c2,0,3.9,0,5.8,0l-6.3,7.6c-14.7,0-36.1-0.2-36.1,2.3v6.4
			c0,1.4,3.8,2.8,7.5,3.5l5.1,0.8V107.4z M150.2,80.7c8.2,1.2,12.8,3,12.8,5.5v8.8h-8.9v-5.9c0-1-4-1.5-9.3-1.9L150.2,80.7z
			 M130.2,105.1l14.9,2.3c13.3,2.7,16.2,3.7,17.5,6c0.2,0.3,0.5,1.1,0.5,3.4V128c0,2.7-5.1,4.6-14.3,5.8l-5.7-6.9
			c6.4-0.4,11-1.2,11-2.4v-5.5c0-1.4-4-2.8-7.5-3.5l-14.8-2.3l-4.1-5L130.2,105.1z M84.3,125c0,2.3,26.1,2.3,34.5,2.3l6.3,7.7
			c-1.4,0-2.7,0-4.2,0c-26.2,0-45.6-2.3-45.6-7.1v-8.1h9V125 M121.5,108l37.3,45.6H140l2.6-4.9l-30.8-37.6v11.4c-3.3,0-6.7,0-10-0.1
			V91.7c3.3-0.1,6.7-0.1,10-0.1v13.3l30.8-37.5l-2.7-5.1h19L121.5,108z M101.8,68.7l-3.3-6.3h13.4v12h-10V68.7z M101.8,139.4
			c3.3,0.2,6.7,0.3,10,0.4v13.8H98.5l3.3-6.3V139.4z"/>
		<path d="M163.4,141.1c0,1.1-0.8,1.9-1.9,1.9c-1.1,0-1.9-0.8-1.9-1.9c0-1,0.9-1.9,1.9-1.9C162.6,139.2,163.4,140.1,163.4,141.1
			 M160.1,141.1c0,0.8,0.6,1.5,1.5,1.5c0.8,0,1.4-0.7,1.4-1.5c0-0.8-0.6-1.5-1.4-1.5C160.7,139.6,160.1,140.3,160.1,141.1
			 M161.2,142.1h-0.4v-1.9c0.2,0,0.4-0.1,0.7-0.1c0.4,0,0.5,0.1,0.6,0.1c0.1,0.1,0.2,0.2,0.2,0.4c0,0.2-0.2,0.4-0.4,0.4v0
			c0.2,0.1,0.3,0.2,0.3,0.5c0.1,0.3,0.1,0.4,0.1,0.5H162c-0.1-0.1-0.1-0.2-0.1-0.5c0-0.2-0.1-0.3-0.4-0.3h-0.2V142.1z M161.2,141
			h0.2c0.2,0,0.4-0.1,0.4-0.3c0-0.2-0.1-0.3-0.4-0.3c-0.1,0-0.2,0-0.2,0V141z"/>
	</g>
</g>
<g id="text">
	<g>
		<g>
			<g>
				<g>
					<path d="M202.9,93.2l-3.1,3.2v5.8h-5.3V79.1h5.3v10.8L210,79.1h5.9l-9.6,10.3l10.1,12.8h-6.2L202.9,93.2z"/>
					<path d="M236.7,97.9v4.3h-17.9V79.1h17.5v4.3h-12.1v5h10.7v4.2h-10.7v5.3H236.7z"/>
					<path d="M262.2,79.1v23.1h-4.4l-11.5-14v14H241V79.1h4.4l11.5,14v-14H262.2z"/>
					<path d="M289.7,79.1v23.1h-4.4l-11.5-14v14h-5.3V79.1h4.4l11.5,14v-14H289.7z"/>
					<path d="M313.9,97.9v4.3H296V79.1h17.5v4.3h-12.1v5H312v4.2h-10.7v5.3H313.9z"/>
					<path d="M316.3,100l1.8-4c1.9,1.4,4.9,2.4,7.6,2.4c3.2,0,4.5-1.1,4.5-2.5c0-4.3-13.4-1.4-13.4-9.9c0-3.9,3.2-7.2,9.7-7.2
						c2.9,0,5.9,0.7,8,2l-1.7,4.1c-2.1-1.2-4.4-1.8-6.4-1.8c-3.2,0-4.4,1.2-4.4,2.6c0,4.3,13.4,1.3,13.4,9.8c0,3.9-3.2,7.2-9.8,7.2
						C322,102.6,318.3,101.5,316.3,100z"/>
					<path d="M354.2,97.3h-10.7l-2,5H336l10.3-23.1h5.3l10.3,23.1h-5.6L354.2,97.3z M352.5,93.2l-3.7-8.8l-3.7,8.8H352.5z"/>
					<path d="M396.5,79.1l-7.6,23.1h-5.7l-5.1-15.6l-5.2,15.6h-5.7l-7.6-23.1h5.5l5.2,16.2l5.4-16.2h5l5.3,16.4l5.4-16.4H396.5z"/>
					<path d="M407.5,100l1.8-4c1.9,1.4,4.9,2.4,7.6,2.4c3.2,0,4.5-1.1,4.5-2.5c0-4.3-13.4-1.4-13.4-9.9c0-3.9,3.2-7.2,9.7-7.2
						c2.9,0,5.9,0.7,8,2l-1.7,4.1c-2.1-1.2-4.4-1.8-6.4-1.8c-3.2,0-4.4,1.2-4.4,2.6c0,4.3,13.4,1.3,13.4,9.8c0,3.9-3.2,7.2-9.8,7.2
						C413.3,102.6,409.6,101.5,407.5,100z"/>
					<path d="M434.7,83.5h-7.4v-4.4h20.1v4.4h-7.4v18.7h-5.3V83.5z"/>
					<path d="M462.6,97.3h-10.7l-2,5h-5.5l10.3-23.1h5.3l10.3,23.1h-5.6L462.6,97.3z M460.9,93.2l-3.7-8.8l-3.7,8.8H460.9z"/>
					<path d="M474.5,83.5h-7.4v-4.4h20.1v4.4h-7.4v18.7h-5.3V83.5z"/>
					<path d="M508.2,97.9v4.3h-17.9V79.1h17.5v4.3h-12.1v5h10.7v4.2h-10.7v5.3H508.2z"/>
				</g>
				<g>
					<path d="M194.5,125.1v-13.2h2.4V125c0,5.5,2.6,8,7.1,8c4.5,0,7.1-2.5,7.1-8v-13.1h2.4v13.2c0,6.6-3.6,10.1-9.5,10.1
						S194.5,131.7,194.5,125.1z"/>
					<path d="M252.9,111.8v23.1h-2l-14.9-18.7v18.7h-2.4v-23.1h2l14.9,18.7v-18.7H252.9z"/>
					<path d="M273.3,111.8h2.4v23.1h-2.4V111.8z"/>
					<path d="M315.3,111.8L305,134.9h-2.4l-10.2-23.1h2.6l8.8,20.1l8.9-20.1H315.3z"/>
					<path d="M348.2,132.8v2.1h-16.3v-23.1h15.8v2.1h-13.4v8.2h11.9v2.1h-11.9v8.6H348.2z"/>
					<path d="M382.5,134.9l-5.3-7.4c-0.6,0.1-1.2,0.1-1.8,0.1h-6.2v7.3h-2.4v-23.1h8.6c5.9,0,9.4,3,9.4,7.9c0,3.6-1.9,6.2-5.3,7.3
						l5.6,7.9H382.5z M382.4,119.7c0-3.7-2.4-5.8-7.1-5.8h-6.1v11.6h6.1C380,125.5,382.4,123.4,382.4,119.7z"/>
					<path d="M401.2,132.1l1-1.9c1.6,1.6,4.6,2.8,7.6,2.8c4.3,0,6.2-1.8,6.2-4.1c0-6.3-14.2-2.4-14.2-11c0-3.4,2.6-6.3,8.5-6.3
						c2.6,0,5.3,0.8,7.2,2l-0.8,1.9c-2-1.3-4.3-1.9-6.3-1.9c-4.2,0-6.1,1.9-6.1,4.2c0,6.3,14.2,2.5,14.2,10.9c0,3.4-2.7,6.3-8.6,6.3
						C406.3,135.1,402.9,133.9,401.2,132.1z"/>
					<path d="M436.5,111.8h2.4v23.1h-2.4V111.8z"/>
					<path d="M463.8,113.9h-8.1v-2.1h18.7v2.1h-8.1v21h-2.4V113.9z"/>
					<path d="M499,126.9v8h-2.4v-8l-9.2-15.1h2.6l7.9,13l7.9-13h2.4L499,126.9z"/>
				</g>
			</g>
		</g>
	</g>
</g>
</svg>
