<?xml version="1.0" encoding="utf-8"?>
<!-- Generator: Adobe Illustrator 22.1.0, SVG Export Plug-In . SVG Version: 6.00 Build 0)  -->
<svg version="1.0" xmlns="http://www.w3.org/2000/svg" xmlns:xlink="http://www.w3.org/1999/xlink" x="0px" y="0px"
	 viewBox="0 0 576 288" style="enable-background:new 0 0 576 288;" xml:space="preserve">
<metadata><?xpacket begin="﻿" id="W5M0MpCehiHzreSzNTczkc9d"?>
<x:xmpmeta xmlns:x="adobe:ns:meta/" x:xmptk="Adobe XMP Core 5.6-c143 79.161356, 2017/09/07-01:11:22        ">
   <rdf:RDF xmlns:rdf="http://www.w3.org/1999/02/22-rdf-syntax-ns#">
      <rdf:Description rdf:about=""/>
   </rdf:RDF>
</x:xmpmeta>
                                                                                                    
                                                                                                    
                                                                                                    
                                                                                                    
                                                                                                    
                                                                                                    
                                                                                                    
                                                                                                    
                                                                                                    
                                                                                                    
                                                                                                    
                                                                                                    
                                                                                                    
                                                                                                    
                                                                                                    
                                                                                                    
                                                                                                    
                                                                                                    
                                                                                                    
                                                                                                    
                           
<?xpacket end="w"?></metadata>
<g id="KS__x26__rule">
	<line style="fill:none;stroke:#000000;stroke-miterlimit:10;" x1="212.8" y1="182.2" x2="363.2" y2="182.2"/>
	<g>
		<path d="M337.4,140.1v-11.2c0-2.1-0.3-4.5-1.1-5.8c-2.8-4.6-8.9-5.7-13.7-6.8c-2-0.5-9.9-1.8-19.5-3.4l7.3-8.8
			c2.9,0.2,5.7,0.4,8.3,0.8v7.2h18.6V98.4c0.1-6.1-6.9-8.3-11.6-9.4c-0.7-0.2-1.5-0.3-2.4-0.5l15.5-18.8h-37.3
			c1,1.9,4.9,9.3,4.9,9.3l-6.3,7.7c-4.6-0.1-9-0.2-12.5-0.2h-1.3V69.7h-26.3l6.5,12.4v4.4h-29.1l4.1,7.3c-0.9,1.3-1.5,3-1.5,4.6
			v12.6c-0.1,8.5,12.3,10.9,18.6,12.2c2.6,0.4,5.3,0.9,7.9,1.3v9.8c-2.6-0.1-5.2-0.4-7.7-0.7v-6.6h-18.7v13
			c-0.1,8.7,13.8,9.8,20,10.5c2.2,0.3,4.3,0.5,6.5,0.6v7l-6.5,12.4h26.3v-18.7c1.1,0,2.2,0,3.4,0c3,0,6,0,9-0.1l7.7,9.5l-4.9,9.2
			h37.2l-16.6-20.3C328.7,149.4,337.4,147.3,337.4,140.1 M309,134.6l-3.2-3.9c3.1,0.5,6.3,1,9.4,1.5c1.2,0.2,2.5,0.5,3.5,0.8v0.7
			C315.5,134.2,312.2,134.4,309,134.6 M266.4,104.1v3.1c-0.8-0.1-1.5-0.2-2.1-0.3c-0.7-0.1-4.7-1-5.7-1.3v-0.8
			C261.2,104.4,263.8,104.2,266.4,104.1 M266.4,119.6l-6.9-1.1c-10.1-2.1-14.7-4.7-14.7-7.5V98.4c0-1.4,0.9-2.6,2.8-3.6l-2-3.5h44.7
			c2,0,3.9,0,5.8,0l-6.3,7.6c-14.7,0-36.1-0.2-36.1,2.3v6.4c0,1.4,3.8,2.8,7.5,3.5l5.1,0.8V119.6z M319.7,92.9
			c8.2,1.2,12.8,3,12.8,5.5v8.8h-8.9v-5.9c0-1-4-1.5-9.3-1.9L319.7,92.9z M299.7,117.2l14.9,2.3c13.3,2.7,16.2,3.7,17.5,6
			c0.2,0.3,0.5,1.1,0.5,3.4v11.2c0,2.7-5.1,4.6-14.3,5.8l-5.7-6.9c6.4-0.4,11-1.2,11-2.4V131c0-1.4-4-2.8-7.5-3.5l-14.8-2.3l-4.1-5
			L299.7,117.2z M253.8,137.2c0,2.3,26.1,2.3,34.5,2.3l6.3,7.7c-1.4,0-2.7,0-4.2,0c-26.2,0-45.6-2.3-45.6-7.1V132h9V137.2
			 M290.9,120.2l37.3,45.6h-18.8l2.6-4.9l-30.8-37.6v11.4c-3.3,0-6.7,0-10-0.1v-30.7c3.3-0.1,6.7-0.1,10-0.1v13.3l30.8-37.5
			l-2.7-5.1h19L290.9,120.2z M271.2,80.9l-3.3-6.3h13.4v12h-10V80.9z M271.2,151.6c3.3,0.2,6.7,0.3,10,0.4v13.8h-13.4l3.3-6.3V151.6
			z"/>
		<path d="M332.9,153.3c0,1.1-0.8,1.9-1.9,1.9c-1.1,0-1.9-0.8-1.9-1.9c0-1,0.9-1.9,1.9-1.9C332.1,151.4,332.9,152.2,332.9,153.3
			 M329.5,153.3c0,0.8,0.6,1.5,1.5,1.5c0.8,0,1.4-0.7,1.4-1.5c0-0.8-0.6-1.5-1.4-1.5C330.1,151.8,329.5,152.5,329.5,153.3
			 M330.7,154.3h-0.4v-1.9c0.2,0,0.4-0.1,0.7-0.1c0.4,0,0.5,0.1,0.6,0.1c0.1,0.1,0.2,0.2,0.2,0.4c0,0.2-0.2,0.4-0.4,0.4v0
			c0.2,0.1,0.3,0.2,0.3,0.5c0.1,0.3,0.1,0.4,0.1,0.5h-0.5c-0.1-0.1-0.1-0.2-0.1-0.5c0-0.2-0.1-0.3-0.4-0.3h-0.2V154.3z M330.7,153.2
			h0.2c0.2,0,0.4-0.1,0.4-0.3c0-0.2-0.1-0.3-0.4-0.3c-0.1,0-0.2,0-0.2,0V153.2z"/>
	</g>
</g>
<g id="text">
	<g>
		<g>
			<path d="M212.6,214.1v-5.6h1v5.6c0,2.3,1.1,3.4,3,3.4c1.9,0,3-1.1,3-3.4v-5.6h1v5.6c0,2.8-1.5,4.3-4,4.3S212.6,216.9,212.6,214.1
				z"/>
			<path d="M239.3,208.4v9.8h-0.9l-6.3-8v8h-1v-9.8h0.9l6.3,8v-8H239.3z"/>
			<path d="M249.7,208.4h1v9.8h-1V208.4z"/>
			<path d="M270.1,208.4l-4.3,9.8h-1l-4.3-9.8h1.1l3.8,8.5l3.8-8.5H270.1z"/>
			<path d="M285.9,217.4v0.9H279v-9.8h6.7v0.9H280v3.5h5.1v0.9H280v3.6H285.9z"/>
			<path d="M302.3,218.2l-2.2-3.2c-0.3,0-0.5,0-0.8,0h-2.6v3.1h-1v-9.8h3.7c2.5,0,4,1.3,4,3.4c0,1.5-0.8,2.6-2.2,3.1l2.4,3.4H302.3z
				 M302.3,211.8c0-1.6-1-2.5-3-2.5h-2.6v4.9h2.6C301.2,214.3,302.3,213.3,302.3,211.8z"/>
			<path d="M312.4,217.1l0.4-0.8c0.7,0.7,1.9,1.2,3.2,1.2c1.8,0,2.6-0.8,2.6-1.7c0-2.7-6-1-6-4.7c0-1.4,1.1-2.7,3.6-2.7
				c1.1,0,2.3,0.3,3,0.9l-0.3,0.8c-0.8-0.5-1.8-0.8-2.7-0.8c-1.8,0-2.6,0.8-2.6,1.8c0,2.7,6,1.1,6,4.6c0,1.4-1.1,2.7-3.7,2.7
				C314.6,218.3,313.2,217.8,312.4,217.1z"/>
			<path d="M329.3,208.4h1v9.8h-1V208.4z"/>
			<path d="M342.7,209.3h-3.4v-0.9h7.9v0.9h-3.4v8.9h-1V209.3z"/>
			<path d="M359.5,214.9v3.4h-1v-3.4l-3.9-6.4h1.1l3.4,5.5l3.4-5.5h1L359.5,214.9z"/>
		</g>
		<g>
			<path d="M216.7,199l-1.5,1.6v2.8h-2.6v-11.2h2.6v5.2l5-5.2h2.9l-4.6,5l4.9,6.2h-3L216.7,199z"/>
			<path d="M233.1,201.3v2.1h-8.7v-11.2h8.5v2.1H227v2.4h5.2v2H227v2.6H233.1z"/>
			<path d="M245.5,192.2v11.2h-2.1l-5.6-6.8v6.8h-2.6v-11.2h2.1l5.6,6.8v-6.8H245.5z"/>
			<path d="M258.3,192.2v11.2h-2.1l-5.6-6.8v6.8H248v-11.2h2.1l5.6,6.8v-6.8H258.3z"/>
			<path d="M269.6,201.3v2.1h-8.7v-11.2h8.5v2.1h-5.9v2.4h5.2v2h-5.2v2.6H269.6z"/>
			<path d="M270.7,202.3l0.9-2c0.9,0.7,2.4,1.2,3.7,1.2c1.5,0,2.2-0.5,2.2-1.2c0-2.1-6.5-0.7-6.5-4.8c0-1.9,1.5-3.5,4.7-3.5
				c1.4,0,2.8,0.3,3.9,1l-0.8,2c-1-0.6-2.1-0.9-3.1-0.9c-1.5,0-2.1,0.6-2.1,1.3c0,2.1,6.5,0.6,6.5,4.7c0,1.9-1.6,3.5-4.7,3.5
				C273.5,203.6,271.7,203.1,270.7,202.3z"/>
			<path d="M289,201h-5.2l-1,2.4h-2.7l5-11.2h2.6l5,11.2H290L289,201z M288.2,199l-1.8-4.3l-1.8,4.3H288.2z"/>
			<path d="M309.3,192.2l-3.7,11.2h-2.8l-2.5-7.6l-2.5,7.6h-2.8l-3.7-11.2h2.7l2.5,7.9l2.6-7.9h2.4l2.6,7.9l2.6-7.9H309.3z"/>
			<path d="M314.7,202.3l0.9-2c0.9,0.7,2.4,1.2,3.7,1.2c1.5,0,2.2-0.5,2.2-1.2c0-2.1-6.5-0.7-6.5-4.8c0-1.9,1.5-3.5,4.7-3.5
				c1.4,0,2.8,0.3,3.9,1l-0.8,2c-1-0.6-2.1-0.9-3.1-0.9c-1.5,0-2.1,0.6-2.1,1.3c0,2.1,6.5,0.6,6.5,4.7c0,1.9-1.6,3.5-4.8,3.5
				C317.4,203.6,315.7,203.1,314.7,202.3z"/>
			<path d="M327.8,194.3h-3.6v-2.1h9.8v2.1h-3.6v9.1h-2.6V194.3z"/>
			<path d="M341.3,201h-5.2l-1,2.4h-2.7l5-11.2h2.6l5,11.2h-2.7L341.3,201z M340.5,199l-1.8-4.3L337,199H340.5z"/>
			<path d="M347.1,194.3h-3.6v-2.1h9.8v2.1h-3.6v9.1h-2.6V194.3z"/>
			<path d="M363.3,201.3v2.1h-8.7v-11.2h8.5v2.1h-5.9v2.4h5.2v2h-5.2v2.6H363.3z"/>
		</g>
	</g>
</g>
</svg>
